solid OpenSCAD_Model
  facet normal -1 0 0
    outer loop
      vertex -29.5 -58 -2.5
      vertex -29.5 58 2.5
      vertex -29.5 58 -2.5
    endloop
  endfacet
  facet normal -1 -0 0
    outer loop
      vertex -29.5 58 2.5
      vertex -29.5 -58 -2.5
      vertex -29.5 -58 2.5
    endloop
  endfacet
  facet normal -0 0 1
    outer loop
      vertex -4.75 18.25 2.5
      vertex 4.75 -18.25 2.5
      vertex 4.75 18.25 2.5
    endloop
  endfacet
  facet normal 0 0 1
    outer loop
      vertex 4.75 -18.25 2.5
      vertex -4.75 18.25 2.5
      vertex -4.75 -18.25 2.5
    endloop
  endfacet
  facet normal 0 0 1
    outer loop
      vertex 4.75 18.25 2.5
      vertex 20 33.25 2.5
      vertex 4.75 27.75 2.5
    endloop
  endfacet
  facet normal 0 0 1
    outer loop
      vertex 20 33.25 2.5
      vertex -4.75 27.75 2.5
      vertex 4.75 27.75 2.5
    endloop
  endfacet
  facet normal 0 0 1
    outer loop
      vertex -20 33.25 2.5
      vertex -4.75 18.25 2.5
      vertex -4.75 27.75 2.5
    endloop
  endfacet
  facet normal 0 0 1
    outer loop
      vertex -4.75 18.25 2.5
      vertex -20 33.25 2.5
      vertex -4.75 -18.25 2.5
    endloop
  endfacet
  facet normal 0 0 1
    outer loop
      vertex -20 -33.25 2.5
      vertex -4.75 -18.25 2.5
      vertex -20 33.25 2.5
    endloop
  endfacet
  facet normal -0 0 1
    outer loop
      vertex -20 33.25 2.5
      vertex -4.75 27.75 2.5
      vertex 20 33.25 2.5
    endloop
  endfacet
  facet normal 0 0 1
    outer loop
      vertex 20 33.25 2.5
      vertex 29.5 58 2.5
      vertex 20 42.75 2.5
    endloop
  endfacet
  facet normal 0 0 1
    outer loop
      vertex 29.5 58 2.5
      vertex -20 42.75 2.5
      vertex 20 42.75 2.5
    endloop
  endfacet
  facet normal 0 0 1
    outer loop
      vertex -29.5 58 2.5
      vertex -20 33.25 2.5
      vertex -20 42.75 2.5
    endloop
  endfacet
  facet normal 0 0 1
    outer loop
      vertex -20 33.25 2.5
      vertex -29.5 58 2.5
      vertex -20 -33.25 2.5
    endloop
  endfacet
  facet normal 0 0 1
    outer loop
      vertex -29.5 -58 2.5
      vertex -20 -33.25 2.5
      vertex -29.5 58 2.5
    endloop
  endfacet
  facet normal -0 0 1
    outer loop
      vertex -29.5 58 2.5
      vertex -20 42.75 2.5
      vertex 29.5 58 2.5
    endloop
  endfacet
  facet normal 0 0 1
    outer loop
      vertex 29.5 58 2.5
      vertex 20 33.25 2.5
      vertex 29.5 -58 2.5
    endloop
  endfacet
  facet normal -0 0 1
    outer loop
      vertex 20 -33.25 2.5
      vertex 29.5 -58 2.5
      vertex 20 33.25 2.5
    endloop
  endfacet
  facet normal -0 0 1
    outer loop
      vertex 20 -42.75 2.5
      vertex 29.5 -58 2.5
      vertex 20 -33.25 2.5
    endloop
  endfacet
  facet normal -0 0 1
    outer loop
      vertex -20 -42.75 2.5
      vertex 29.5 -58 2.5
      vertex 20 -42.75 2.5
    endloop
  endfacet
  facet normal 0 0 1
    outer loop
      vertex -20 -42.75 2.5
      vertex -29.5 -58 2.5
      vertex 29.5 -58 2.5
    endloop
  endfacet
  facet normal 0 0 1
    outer loop
      vertex -20 -33.25 2.5
      vertex -29.5 -58 2.5
      vertex -20 -42.75 2.5
    endloop
  endfacet
  facet normal 0 0 1
    outer loop
      vertex 20 33.25 2.5
      vertex 4.75 18.25 2.5
      vertex 20 -33.25 2.5
    endloop
  endfacet
  facet normal -0 0 1
    outer loop
      vertex 4.75 -18.25 2.5
      vertex 20 -33.25 2.5
      vertex 4.75 18.25 2.5
    endloop
  endfacet
  facet normal -0 0 1
    outer loop
      vertex 4.75 -27.75 2.5
      vertex 20 -33.25 2.5
      vertex 4.75 -18.25 2.5
    endloop
  endfacet
  facet normal -0 0 1
    outer loop
      vertex -4.75 -27.75 2.5
      vertex 20 -33.25 2.5
      vertex 4.75 -27.75 2.5
    endloop
  endfacet
  facet normal 0 0 1
    outer loop
      vertex -4.75 -27.75 2.5
      vertex -20 -33.25 2.5
      vertex 20 -33.25 2.5
    endloop
  endfacet
  facet normal 0 0 1
    outer loop
      vertex -4.75 -18.25 2.5
      vertex -20 -33.25 2.5
      vertex -4.75 -27.75 2.5
    endloop
  endfacet
  facet normal 1 -0 0
    outer loop
      vertex 29.5 -58 2.5
      vertex 29.5 58 -2.5
      vertex 29.5 58 2.5
    endloop
  endfacet
  facet normal 1 0 0
    outer loop
      vertex 29.5 58 -2.5
      vertex 29.5 -58 2.5
      vertex 29.5 -58 -2.5
    endloop
  endfacet
  facet normal 0 0 -1
    outer loop
      vertex -29.5 -58 -2.5
      vertex 29.5 58 -2.5
      vertex 29.5 -58 -2.5
    endloop
  endfacet
  facet normal -0 0 -1
    outer loop
      vertex 29.5 58 -2.5
      vertex -29.5 -58 -2.5
      vertex -29.5 58 -2.5
    endloop
  endfacet
  facet normal 0 -1 0
    outer loop
      vertex -29.5 -58 -2.5
      vertex 29.5 -58 2.5
      vertex -29.5 -58 2.5
    endloop
  endfacet
  facet normal 0 -1 -0
    outer loop
      vertex 29.5 -58 2.5
      vertex -29.5 -58 -2.5
      vertex 29.5 -58 -2.5
    endloop
  endfacet
  facet normal 0 1 -0
    outer loop
      vertex 29.5 58 -2.5
      vertex -29.5 58 2.5
      vertex 29.5 58 2.5
    endloop
  endfacet
  facet normal 0 1 0
    outer loop
      vertex -29.5 58 2.5
      vertex 29.5 58 -2.5
      vertex -29.5 58 -2.5
    endloop
  endfacet
  facet normal -1 0 0
    outer loop
      vertex -4.75 18.25 2.5
      vertex -4.75 27.75 17.5
      vertex -4.75 27.75 2.5
    endloop
  endfacet
  facet normal -1 -0 0
    outer loop
      vertex -4.75 27.75 17.5
      vertex -4.75 18.25 2.5
      vertex -4.75 18.25 17.5
    endloop
  endfacet
  facet normal -0 0 1
    outer loop
      vertex -4.75 27.75 17.5
      vertex 4.75 18.25 17.5
      vertex 4.75 27.75 17.5
    endloop
  endfacet
  facet normal 0 0 1
    outer loop
      vertex 4.75 18.25 17.5
      vertex -4.75 27.75 17.5
      vertex -4.75 18.25 17.5
    endloop
  endfacet
  facet normal 1 -0 0
    outer loop
      vertex 4.75 18.25 17.5
      vertex 4.75 27.75 2.5
      vertex 4.75 27.75 17.5
    endloop
  endfacet
  facet normal 1 0 0
    outer loop
      vertex 4.75 27.75 2.5
      vertex 4.75 18.25 17.5
      vertex 4.75 18.25 2.5
    endloop
  endfacet
  facet normal 0 1 -0
    outer loop
      vertex 4.75 27.75 2.5
      vertex -4.75 27.75 17.5
      vertex 4.75 27.75 17.5
    endloop
  endfacet
  facet normal 0 1 0
    outer loop
      vertex -4.75 27.75 17.5
      vertex 4.75 27.75 2.5
      vertex -4.75 27.75 2.5
    endloop
  endfacet
  facet normal 0 -1 0
    outer loop
      vertex -4.75 18.25 2.5
      vertex 4.75 18.25 17.5
      vertex -4.75 18.25 17.5
    endloop
  endfacet
  facet normal 0 -1 -0
    outer loop
      vertex 4.75 18.25 17.5
      vertex -4.75 18.25 2.5
      vertex 4.75 18.25 2.5
    endloop
  endfacet
  facet normal -1 0 0
    outer loop
      vertex -20 33.25 2.5
      vertex -20 42.75 14
      vertex -20 42.75 2.5
    endloop
  endfacet
  facet normal -1 -0 0
    outer loop
      vertex -20 42.75 14
      vertex -20 33.25 2.5
      vertex -20 33.25 14
    endloop
  endfacet
  facet normal -0 0 1
    outer loop
      vertex -20 42.75 14
      vertex 20 33.25 14
      vertex 20 42.75 14
    endloop
  endfacet
  facet normal 0 0 1
    outer loop
      vertex 20 33.25 14
      vertex -20 42.75 14
      vertex -20 33.25 14
    endloop
  endfacet
  facet normal 1 -0 0
    outer loop
      vertex 20 33.25 14
      vertex 20 42.75 2.5
      vertex 20 42.75 14
    endloop
  endfacet
  facet normal 1 0 0
    outer loop
      vertex 20 42.75 2.5
      vertex 20 33.25 14
      vertex 20 33.25 2.5
    endloop
  endfacet
  facet normal 0 -1 0
    outer loop
      vertex -20 33.25 2.5
      vertex 20 33.25 14
      vertex -20 33.25 14
    endloop
  endfacet
  facet normal 0 -1 -0
    outer loop
      vertex 20 33.25 14
      vertex -20 33.25 2.5
      vertex 20 33.25 2.5
    endloop
  endfacet
  facet normal 0 1 -0
    outer loop
      vertex 20 42.75 2.5
      vertex -20 42.75 14
      vertex 20 42.75 14
    endloop
  endfacet
  facet normal 0 1 0
    outer loop
      vertex -20 42.75 14
      vertex 20 42.75 2.5
      vertex -20 42.75 2.5
    endloop
  endfacet
  facet normal -1 0 0
    outer loop
      vertex -4.75 -27.75 2.5
      vertex -4.75 -18.25 17.5
      vertex -4.75 -18.25 2.5
    endloop
  endfacet
  facet normal -1 -0 0
    outer loop
      vertex -4.75 -18.25 17.5
      vertex -4.75 -27.75 2.5
      vertex -4.75 -27.75 17.5
    endloop
  endfacet
  facet normal -0 0 1
    outer loop
      vertex -4.75 -18.25 17.5
      vertex 4.75 -27.75 17.5
      vertex 4.75 -18.25 17.5
    endloop
  endfacet
  facet normal 0 0 1
    outer loop
      vertex 4.75 -27.75 17.5
      vertex -4.75 -18.25 17.5
      vertex -4.75 -27.75 17.5
    endloop
  endfacet
  facet normal 1 -0 0
    outer loop
      vertex 4.75 -27.75 17.5
      vertex 4.75 -18.25 2.5
      vertex 4.75 -18.25 17.5
    endloop
  endfacet
  facet normal 1 0 0
    outer loop
      vertex 4.75 -18.25 2.5
      vertex 4.75 -27.75 17.5
      vertex 4.75 -27.75 2.5
    endloop
  endfacet
  facet normal 0 1 -0
    outer loop
      vertex 4.75 -18.25 2.5
      vertex -4.75 -18.25 17.5
      vertex 4.75 -18.25 17.5
    endloop
  endfacet
  facet normal 0 1 0
    outer loop
      vertex -4.75 -18.25 17.5
      vertex 4.75 -18.25 2.5
      vertex -4.75 -18.25 2.5
    endloop
  endfacet
  facet normal 0 -1 0
    outer loop
      vertex -4.75 -27.75 2.5
      vertex 4.75 -27.75 17.5
      vertex -4.75 -27.75 17.5
    endloop
  endfacet
  facet normal 0 -1 -0
    outer loop
      vertex 4.75 -27.75 17.5
      vertex -4.75 -27.75 2.5
      vertex 4.75 -27.75 2.5
    endloop
  endfacet
  facet normal -1 0 0
    outer loop
      vertex -20 -42.75 2.5
      vertex -20 -33.25 14
      vertex -20 -33.25 2.5
    endloop
  endfacet
  facet normal -1 -0 0
    outer loop
      vertex -20 -33.25 14
      vertex -20 -42.75 2.5
      vertex -20 -42.75 14
    endloop
  endfacet
  facet normal -0 0 1
    outer loop
      vertex -20 -33.25 14
      vertex 20 -42.75 14
      vertex 20 -33.25 14
    endloop
  endfacet
  facet normal 0 0 1
    outer loop
      vertex 20 -42.75 14
      vertex -20 -33.25 14
      vertex -20 -42.75 14
    endloop
  endfacet
  facet normal 1 -0 0
    outer loop
      vertex 20 -42.75 14
      vertex 20 -33.25 2.5
      vertex 20 -33.25 14
    endloop
  endfacet
  facet normal 1 0 0
    outer loop
      vertex 20 -33.25 2.5
      vertex 20 -42.75 14
      vertex 20 -42.75 2.5
    endloop
  endfacet
  facet normal 0 1 -0
    outer loop
      vertex 20 -33.25 2.5
      vertex -20 -33.25 14
      vertex 20 -33.25 14
    endloop
  endfacet
  facet normal 0 1 0
    outer loop
      vertex -20 -33.25 14
      vertex 20 -33.25 2.5
      vertex -20 -33.25 2.5
    endloop
  endfacet
  facet normal 0 -1 0
    outer loop
      vertex -20 -42.75 2.5
      vertex 20 -42.75 14
      vertex -20 -42.75 14
    endloop
  endfacet
  facet normal 0 -1 -0
    outer loop
      vertex 20 -42.75 14
      vertex -20 -42.75 2.5
      vertex 20 -42.75 2.5
    endloop
  endfacet
endsolid OpenSCAD_Model
