solid OpenSCAD_Model
  facet normal -1 0 0
    outer loop
      vertex -29.5 -42.5 -2.5
      vertex -29.5 42.5 2.5
      vertex -29.5 42.5 -2.5
    endloop
  endfacet
  facet normal -1 -0 0
    outer loop
      vertex -29.5 42.5 2.5
      vertex -29.5 -42.5 -2.5
      vertex -29.5 -42.5 2.5
    endloop
  endfacet
  facet normal -0 0 1
    outer loop
      vertex -5 18 2.5
      vertex 5 -18 2.5
      vertex 5 18 2.5
    endloop
  endfacet
  facet normal 0 0 1
    outer loop
      vertex 5 -18 2.5
      vertex -5 18 2.5
      vertex -5 -18 2.5
    endloop
  endfacet
  facet normal 0 0 1
    outer loop
      vertex 5 18 2.5
      vertex 15 31 2.5
      vertex 5 28 2.5
    endloop
  endfacet
  facet normal 0 0 1
    outer loop
      vertex 15 31 2.5
      vertex -5 28 2.5
      vertex 5 28 2.5
    endloop
  endfacet
  facet normal 0 0 1
    outer loop
      vertex -15 31 2.5
      vertex -5 18 2.5
      vertex -5 28 2.5
    endloop
  endfacet
  facet normal 0 0 1
    outer loop
      vertex -5 18 2.5
      vertex -15 31 2.5
      vertex -5 -18 2.5
    endloop
  endfacet
  facet normal 0 0 1
    outer loop
      vertex -15 -31 2.5
      vertex -5 -18 2.5
      vertex -15 31 2.5
    endloop
  endfacet
  facet normal -0 0 1
    outer loop
      vertex -15 31 2.5
      vertex -5 28 2.5
      vertex 15 31 2.5
    endloop
  endfacet
  facet normal 0 0 1
    outer loop
      vertex 15 31 2.5
      vertex 29.5 42.5 2.5
      vertex 15 41 2.5
    endloop
  endfacet
  facet normal 0 0 1
    outer loop
      vertex 29.5 42.5 2.5
      vertex -15 41 2.5
      vertex 15 41 2.5
    endloop
  endfacet
  facet normal 0 0 1
    outer loop
      vertex -29.5 42.5 2.5
      vertex -15 31 2.5
      vertex -15 41 2.5
    endloop
  endfacet
  facet normal 0 0 1
    outer loop
      vertex -15 31 2.5
      vertex -29.5 42.5 2.5
      vertex -15 -31 2.5
    endloop
  endfacet
  facet normal 0 0 1
    outer loop
      vertex -29.5 -42.5 2.5
      vertex -15 -31 2.5
      vertex -29.5 42.5 2.5
    endloop
  endfacet
  facet normal -0 0 1
    outer loop
      vertex -29.5 42.5 2.5
      vertex -15 41 2.5
      vertex 29.5 42.5 2.5
    endloop
  endfacet
  facet normal 0 0 1
    outer loop
      vertex 29.5 42.5 2.5
      vertex 15 31 2.5
      vertex 29.5 -42.5 2.5
    endloop
  endfacet
  facet normal -0 0 1
    outer loop
      vertex 15 -31 2.5
      vertex 29.5 -42.5 2.5
      vertex 15 31 2.5
    endloop
  endfacet
  facet normal -0 0 1
    outer loop
      vertex 15 -41 2.5
      vertex 29.5 -42.5 2.5
      vertex 15 -31 2.5
    endloop
  endfacet
  facet normal -0 0 1
    outer loop
      vertex -15 -41 2.5
      vertex 29.5 -42.5 2.5
      vertex 15 -41 2.5
    endloop
  endfacet
  facet normal 0 0 1
    outer loop
      vertex -15 -41 2.5
      vertex -29.5 -42.5 2.5
      vertex 29.5 -42.5 2.5
    endloop
  endfacet
  facet normal 0 0 1
    outer loop
      vertex -15 -31 2.5
      vertex -29.5 -42.5 2.5
      vertex -15 -41 2.5
    endloop
  endfacet
  facet normal 0 0 1
    outer loop
      vertex 15 31 2.5
      vertex 5 18 2.5
      vertex 15 -31 2.5
    endloop
  endfacet
  facet normal -0 0 1
    outer loop
      vertex 5 -18 2.5
      vertex 15 -31 2.5
      vertex 5 18 2.5
    endloop
  endfacet
  facet normal -0 0 1
    outer loop
      vertex 5 -28 2.5
      vertex 15 -31 2.5
      vertex 5 -18 2.5
    endloop
  endfacet
  facet normal -0 0 1
    outer loop
      vertex -5 -28 2.5
      vertex 15 -31 2.5
      vertex 5 -28 2.5
    endloop
  endfacet
  facet normal 0 0 1
    outer loop
      vertex -5 -28 2.5
      vertex -15 -31 2.5
      vertex 15 -31 2.5
    endloop
  endfacet
  facet normal 0 0 1
    outer loop
      vertex -5 -18 2.5
      vertex -15 -31 2.5
      vertex -5 -28 2.5
    endloop
  endfacet
  facet normal 1 -0 0
    outer loop
      vertex 29.5 -42.5 2.5
      vertex 29.5 42.5 -2.5
      vertex 29.5 42.5 2.5
    endloop
  endfacet
  facet normal 1 0 0
    outer loop
      vertex 29.5 42.5 -2.5
      vertex 29.5 -42.5 2.5
      vertex 29.5 -42.5 -2.5
    endloop
  endfacet
  facet normal 0 1 -0
    outer loop
      vertex 29.5 42.5 -2.5
      vertex -29.5 42.5 2.5
      vertex 29.5 42.5 2.5
    endloop
  endfacet
  facet normal 0 1 0
    outer loop
      vertex -29.5 42.5 2.5
      vertex 29.5 42.5 -2.5
      vertex -29.5 42.5 -2.5
    endloop
  endfacet
  facet normal 0 0 -1
    outer loop
      vertex -29.5 -42.5 -2.5
      vertex 29.5 42.5 -2.5
      vertex 29.5 -42.5 -2.5
    endloop
  endfacet
  facet normal -0 0 -1
    outer loop
      vertex 29.5 42.5 -2.5
      vertex -29.5 -42.5 -2.5
      vertex -29.5 42.5 -2.5
    endloop
  endfacet
  facet normal 0 -1 0
    outer loop
      vertex -29.5 -42.5 -2.5
      vertex 29.5 -42.5 2.5
      vertex -29.5 -42.5 2.5
    endloop
  endfacet
  facet normal 0 -1 -0
    outer loop
      vertex 29.5 -42.5 2.5
      vertex -29.5 -42.5 -2.5
      vertex 29.5 -42.5 -2.5
    endloop
  endfacet
  facet normal -1 0 0
    outer loop
      vertex -5 18 2.5
      vertex -5 28 18
      vertex -5 28 2.5
    endloop
  endfacet
  facet normal -1 -0 0
    outer loop
      vertex -5 28 18
      vertex -5 18 2.5
      vertex -5 18 18
    endloop
  endfacet
  facet normal -0 0 1
    outer loop
      vertex -5 28 18
      vertex 5 18 18
      vertex 5 28 18
    endloop
  endfacet
  facet normal 0 0 1
    outer loop
      vertex 5 18 18
      vertex -5 28 18
      vertex -5 18 18
    endloop
  endfacet
  facet normal 1 -0 0
    outer loop
      vertex 5 18 18
      vertex 5 28 2.5
      vertex 5 28 18
    endloop
  endfacet
  facet normal 1 0 0
    outer loop
      vertex 5 28 2.5
      vertex 5 18 18
      vertex 5 18 2.5
    endloop
  endfacet
  facet normal 0 -1 0
    outer loop
      vertex -5 18 2.5
      vertex 5 18 18
      vertex -5 18 18
    endloop
  endfacet
  facet normal 0 -1 -0
    outer loop
      vertex 5 18 18
      vertex -5 18 2.5
      vertex 5 18 2.5
    endloop
  endfacet
  facet normal 0 1 -0
    outer loop
      vertex 5 28 2.5
      vertex -5 28 18
      vertex 5 28 18
    endloop
  endfacet
  facet normal 0 1 0
    outer loop
      vertex -5 28 18
      vertex 5 28 2.5
      vertex -5 28 2.5
    endloop
  endfacet
  facet normal -1 0 0
    outer loop
      vertex -5 -28 2.5
      vertex -5 -18 18
      vertex -5 -18 2.5
    endloop
  endfacet
  facet normal -1 -0 0
    outer loop
      vertex -5 -18 18
      vertex -5 -28 2.5
      vertex -5 -28 18
    endloop
  endfacet
  facet normal -0 0 1
    outer loop
      vertex -5 -18 18
      vertex 5 -28 18
      vertex 5 -18 18
    endloop
  endfacet
  facet normal 0 0 1
    outer loop
      vertex 5 -28 18
      vertex -5 -18 18
      vertex -5 -28 18
    endloop
  endfacet
  facet normal 1 -0 0
    outer loop
      vertex 5 -28 18
      vertex 5 -18 2.5
      vertex 5 -18 18
    endloop
  endfacet
  facet normal 1 0 0
    outer loop
      vertex 5 -18 2.5
      vertex 5 -28 18
      vertex 5 -28 2.5
    endloop
  endfacet
  facet normal 0 1 -0
    outer loop
      vertex 5 -18 2.5
      vertex -5 -18 18
      vertex 5 -18 18
    endloop
  endfacet
  facet normal 0 1 0
    outer loop
      vertex -5 -18 18
      vertex 5 -18 2.5
      vertex -5 -18 2.5
    endloop
  endfacet
  facet normal 0 -1 0
    outer loop
      vertex -5 -28 2.5
      vertex 5 -28 18
      vertex -5 -28 18
    endloop
  endfacet
  facet normal 0 -1 -0
    outer loop
      vertex 5 -28 18
      vertex -5 -28 2.5
      vertex 5 -28 2.5
    endloop
  endfacet
  facet normal -1 0 0
    outer loop
      vertex -15 -41 2.5
      vertex -15 -31 12.5
      vertex -15 -31 2.5
    endloop
  endfacet
  facet normal -1 -0 0
    outer loop
      vertex -15 -31 12.5
      vertex -15 -41 2.5
      vertex -15 -41 12.5
    endloop
  endfacet
  facet normal -0 0 1
    outer loop
      vertex -15 -31 12.5
      vertex 15 -41 12.5
      vertex 15 -31 12.5
    endloop
  endfacet
  facet normal 0 0 1
    outer loop
      vertex 15 -41 12.5
      vertex -15 -31 12.5
      vertex -15 -41 12.5
    endloop
  endfacet
  facet normal 1 -0 0
    outer loop
      vertex 15 -41 12.5
      vertex 15 -31 2.5
      vertex 15 -31 12.5
    endloop
  endfacet
  facet normal 1 0 0
    outer loop
      vertex 15 -31 2.5
      vertex 15 -41 12.5
      vertex 15 -41 2.5
    endloop
  endfacet
  facet normal 0 -1 0
    outer loop
      vertex -15 -41 2.5
      vertex 15 -41 12.5
      vertex -15 -41 12.5
    endloop
  endfacet
  facet normal 0 -1 -0
    outer loop
      vertex 15 -41 12.5
      vertex -15 -41 2.5
      vertex 15 -41 2.5
    endloop
  endfacet
  facet normal 0 1 -0
    outer loop
      vertex 15 -31 2.5
      vertex -15 -31 12.5
      vertex 15 -31 12.5
    endloop
  endfacet
  facet normal 0 1 0
    outer loop
      vertex -15 -31 12.5
      vertex 15 -31 2.5
      vertex -15 -31 2.5
    endloop
  endfacet
  facet normal -1 0 0
    outer loop
      vertex -15 31 2.5
      vertex -15 41 12.5
      vertex -15 41 2.5
    endloop
  endfacet
  facet normal -1 -0 0
    outer loop
      vertex -15 41 12.5
      vertex -15 31 2.5
      vertex -15 31 12.5
    endloop
  endfacet
  facet normal -0 0 1
    outer loop
      vertex -15 41 12.5
      vertex 15 31 12.5
      vertex 15 41 12.5
    endloop
  endfacet
  facet normal 0 0 1
    outer loop
      vertex 15 31 12.5
      vertex -15 41 12.5
      vertex -15 31 12.5
    endloop
  endfacet
  facet normal 1 -0 0
    outer loop
      vertex 15 31 12.5
      vertex 15 41 2.5
      vertex 15 41 12.5
    endloop
  endfacet
  facet normal 1 0 0
    outer loop
      vertex 15 41 2.5
      vertex 15 31 12.5
      vertex 15 31 2.5
    endloop
  endfacet
  facet normal 0 1 -0
    outer loop
      vertex 15 41 2.5
      vertex -15 41 12.5
      vertex 15 41 12.5
    endloop
  endfacet
  facet normal 0 1 0
    outer loop
      vertex -15 41 12.5
      vertex 15 41 2.5
      vertex -15 41 2.5
    endloop
  endfacet
  facet normal 0 -1 0
    outer loop
      vertex -15 31 2.5
      vertex 15 31 12.5
      vertex -15 31 12.5
    endloop
  endfacet
  facet normal 0 -1 -0
    outer loop
      vertex 15 31 12.5
      vertex -15 31 2.5
      vertex 15 31 2.5
    endloop
  endfacet
endsolid OpenSCAD_Model
